<svg width="30" height="30" viewBox="0 0 30 30" fill="none" xmlns="http://www.w3.org/2000/svg">
<path d="M15 0C6.71531 0 0 6.71531 0 15C0 23.2838 6.71531 30 15 30C23.2847 30 30 23.2838 30 15C30 6.71531 23.2847 0 15 0Z" fill="#06A12E"/>
<path d="M13.8178 16.1297C15.4359 17.7478 17.0219 18.4043 17.5931 17.833L18.3775 17.0488C18.637 16.7894 18.9889 16.6436 19.3558 16.6436C19.7228 16.6436 20.0747 16.7894 20.3342 17.0488L22.0952 18.8098C22.3546 19.0693 22.5004 19.4212 22.5004 19.7882C22.5004 20.1551 22.3546 20.507 22.0952 20.7665L20.7231 22.1385C19.4268 23.4349 15.5926 21.7044 11.9178 18.0298C10.0814 16.1924 8.87686 14.4618 8.09835 12.8345C7.31984 11.2071 7.16208 9.87231 7.80989 9.22451L9.1819 7.85249C9.44137 7.59303 9.79329 7.44727 10.1602 7.44727C10.5272 7.44727 10.8791 7.59303 11.1386 7.85249L12.8996 9.61293C13.159 9.87241 13.3048 10.2243 13.3048 10.5913C13.3048 10.9582 13.159 11.3101 12.8996 11.5696L12.1146 12.3559C11.5434 12.9265 12.1997 14.5123 13.8178 16.1297Z" fill="white"/>
</svg>
