<?xml version="1.0" standalone="no"?>
<!DOCTYPE svg PUBLIC "-//W3C//DTD SVG 20010904//EN"
 "http://www.w3.org/TR/2001/REC-SVG-20010904/DTD/svg10.dtd">
<svg version="1.0" xmlns="http://www.w3.org/2000/svg"
 width="200.000000pt" height="200.000000pt" viewBox="0 0 200.000000 200.000000"
 preserveAspectRatio="xMidYMid meet">
<metadata>
Created by potrace 1.11, written by Peter Selinger 2001-2013
</metadata>
<g transform="translate(0.000000,200.000000) scale(0.100000,-0.100000)"
fill="#000000" stroke="none">
<path d="M0 1000 l0 -1000 1000 0 1000 0 0 1000 0 1000 -1000 0 -1000 0 0
-1000z m1215 790 c167 -43 336 -157 426 -287 17 -24 42 -73 56 -110 23 -58 27
-83 27 -173 -1 -73 -6 -119 -17 -151 -16 -43 -16 -50 -2 -90 9 -24 18 -78 22
-119 14 -191 -85 -374 -269 -496 -324 -216 -753 -168 -1020 113 -156 165 -227
359 -215 590 19 378 301 685 682 743 82 12 219 3 310 -20z"/>
<path d="M1044 1681 c3 -4 -11 -5 -31 -3 -27 4 -34 1 -28 -8 6 -9 4 -11 -6 -5
-19 13 -49 13 -56 2 -3 -5 -8 -5 -12 2 -5 7 -18 7 -44 0 -39 -10 -48 -33 -24
-59 10 -12 9 -12 -5 -1 -9 7 -18 21 -20 31 -3 17 -6 17 -37 4 -24 -10 -31 -17
-24 -27 18 -22 22 -57 7 -57 -10 0 -13 7 -8 25 7 29 -18 45 -45 28 -24 -15
-17 -112 11 -135 11 -10 16 -18 11 -18 -22 0 -43 38 -43 78 0 52 -11 59 -52
30 -63 -43 -109 -91 -95 -100 8 -5 5 -8 -10 -8 -25 0 -39 -15 -23 -25 5 -3 10
-12 10 -18 0 -8 -4 -7 -9 2 -12 18 -31 4 -59 -43 l-19 -32 30 -34 c25 -29 29
-39 24 -77 -2 -24 -2 -42 1 -39 3 3 11 1 19 -5 9 -8 13 -8 13 -1 0 6 -4 14
-10 17 -13 8 -13 52 0 60 6 3 10 17 10 30 0 28 30 48 57 38 16 -6 17 -5 3 12
-13 16 -11 16 13 -2 16 -12 36 -19 45 -16 15 5 15 4 -1 -8 -11 -9 -20 -36 -25
-82 -9 -73 -22 -90 -59 -84 -13 2 -23 2 -23 0 0 -7 52 -93 56 -93 2 0 1 14 -2
30 -7 35 -6 35 41 13 33 -16 37 -16 64 0 16 9 36 14 45 11 9 -3 16 -2 16 3 0
6 10 15 23 21 15 7 17 11 6 11 -9 1 -27 12 -41 26 l-25 25 -11 -25 c-13 -27
-49 -34 -70 -13 -7 7 -11 32 -10 58 l1 45 6 -44 c7 -54 32 -74 58 -48 16 16
16 17 -5 17 -13 0 -22 6 -22 15 0 11 8 15 28 13 21 -2 27 1 27 17 0 14 -7 20
-22 20 -31 0 -41 15 -15 22 28 7 28 28 0 47 -12 9 -18 19 -14 23 4 4 11 1 15
-6 5 -7 13 -11 17 -8 5 3 14 -1 21 -8 10 -10 10 -14 1 -17 -9 -3 -9 -15 2 -47
9 -27 17 -38 23 -32 7 7 6 15 -3 26 -7 8 -9 15 -4 15 5 0 3 4 -5 9 -12 8 -12
12 0 28 14 19 32 23 45 11 11 -12 34 12 34 37 0 26 -29 55 -55 55 -10 0 -28
-8 -39 -17 -21 -18 -21 -18 -2 5 25 28 57 28 84 -1 38 -41 18 -96 -32 -89 -19
2 -20 2 -3 -8 11 -7 16 -18 12 -29 -5 -16 1 -18 47 -15 29 1 61 3 71 3 16 1
16 3 2 31 -8 16 -15 38 -15 49 0 21 49 124 50 104 0 -7 15 -10 43 -7 l42 3
-39 -8 c-69 -15 -104 -78 -74 -134 16 -31 39 -46 68 -46 l25 0 -25 10 c-28 11
-60 38 -60 50 0 4 11 -3 25 -16 28 -29 51 -31 83 -9 12 8 22 12 22 8 0 -21 30
23 33 49 l4 32 1 -32 c2 -24 6 -31 16 -27 8 3 12 13 9 22 -4 13 -3 14 5 3 7
-10 21 -11 53 -6 24 5 63 7 87 6 24 -2 50 3 58 10 12 10 13 9 8 -5 -5 -12 0
-16 19 -16 29 0 47 34 28 53 -6 6 -10 27 -10 47 l2 35 6 -39 c6 -42 12 -46 95
-59 42 -7 38 8 -4 16 -24 4 -24 4 3 6 21 1 32 -7 47 -31 17 -28 17 -34 4 -52
-8 -11 -14 -27 -14 -36 0 -8 9 0 20 18 11 17 24 32 30 32 5 0 1 -9 -11 -21
-25 -25 -22 -46 12 -66 43 -26 59 -13 48 39 -6 23 -15 45 -21 49 -7 4 -5 8 3
12 9 3 7 6 -6 6 -16 1 -17 3 -5 11 11 7 12 12 3 21 -8 8 -14 6 -22 -9 -6 -10
-7 -22 -4 -26 3 -3 1 -6 -5 -6 -16 0 -15 12 3 36 19 25 19 36 -1 60 -14 17
-15 17 -10 1 4 -11 2 -16 -5 -12 -5 4 -7 15 -4 25 6 19 -40 64 -56 54 -5 -3
-6 1 -3 9 3 9 -12 27 -43 49 -56 41 -138 85 -128 68 4 -7 -10 -1 -31 13 -37
24 -92 39 -177 51 -20 3 -35 2 -33 -3z m-89 -29 c-3 -3 -11 0 -18 7 -9 10 -8
11 6 5 10 -3 15 -9 12 -12z m129 -37 c-3 -6 -11 -12 -18 -12 -10 0 -10 6 -2
23 11 22 29 13 20 -11z m127 9 c-17 -12 -22 -24 -19 -45 3 -15 1 -26 -4 -23
-23 14 7 84 36 84 6 0 0 -7 -13 -16z m-238 -5 c20 13 21 13 8 -2 -7 -10 -21
-17 -31 -17 -10 0 -24 7 -31 17 -13 15 -12 15 9 2 19 -12 25 -12 45 0z m59
-31 c-7 -7 -31 -11 -54 -9 -38 2 -40 1 -27 -16 13 -16 12 -17 -4 -4 -9 7 -29
11 -45 9 -15 -3 -40 -1 -57 3 -28 8 -28 8 6 4 20 -2 41 1 45 5 5 5 36 11 69
13 33 2 64 4 70 5 5 1 4 -3 -3 -10z m265 -20 c-3 -7 -5 -2 -5 12 0 14 2 19 5
13 2 -7 2 -19 0 -25z m-244 -3 c-3 -9 -8 -14 -10 -11 -3 3 -2 9 2 15 9 16 15
13 8 -4z m203 -6 c1 -8 2 -18 3 -23 0 -5 9 -2 19 5 15 13 16 12 4 -2 -16 -22
-72 -31 -72 -12 0 7 5 13 11 13 5 0 7 5 4 10 -8 14 4 32 18 27 7 -2 13 -10 13
-18z m-456 -18 c0 -5 -7 -14 -15 -21 -8 -7 -15 -18 -15 -26 0 -7 -4 -16 -10
-19 -6 -3 -7 1 -4 9 4 11 0 16 -10 16 -9 0 -16 4 -16 9 0 6 9 8 21 6 15 -3 23
2 26 15 5 20 23 28 23 11z m91 -1 c9 13 10 13 6 0 -2 -8 -10 -15 -17 -15 -7 0
-15 7 -17 15 -4 13 -3 13 6 0 10 -13 12 -13 22 0z m79 -25 c0 -14 -4 -25 -9
-25 -4 0 -6 11 -3 25 2 14 6 25 8 25 2 0 4 -11 4 -25z m91 -8 c-8 -8 -14 -8
-23 2 -11 10 -10 11 5 6 12 -5 17 -2 18 11 0 12 2 14 6 6 3 -8 0 -19 -6 -25z
m-418 1 c-2 -5 -10 -8 -17 -8 -8 0 -13 -14 -14 -35 -2 -44 -8 -55 -30 -54 -15
1 -15 2 1 6 12 3 17 15 17 42 0 46 -8 56 -27 33 -13 -15 -13 -15 -4 4 8 16 19
21 45 20 19 0 32 -4 29 -8z m657 8 c0 -2 -7 -7 -16 -10 -8 -3 -12 -2 -9 4 6
10 25 14 25 6z m35 -6 c4 -6 10 -8 15 -5 4 3 6 -5 2 -17 -4 -16 -7 -18 -10 -8
-2 8 -11 21 -20 28 -9 6 -11 12 -5 12 7 0 15 -5 18 -10z m-151 -24 c-3 -9 -10
-16 -16 -16 -5 0 -7 -4 -4 -8 3 -5 -1 -9 -9 -9 -8 0 -12 4 -9 9 11 17 -27 19
-54 3 l-27 -18 19 21 c21 24 62 29 69 10 2 -8 9 -5 17 9 16 25 24 24 14 -1z
m76 15 c0 -5 -7 -16 -15 -25 -14 -13 -13 -16 2 -25 17 -9 17 -12 -2 -48 -15
-28 -26 -38 -45 -38 -16 0 -25 6 -26 18 -1 12 -1 13 3 2 2 -8 11 -15 18 -15 9
0 12 7 9 18 -5 14 -4 15 5 2 10 -13 12 -13 21 0 16 24 12 59 -9 71 -17 11 -17
14 -2 31 16 19 41 24 41 9z m-589 -24 c-10 -9 -11 -8 -5 6 3 10 9 15 12 12 3
-3 0 -11 -7 -18z m156 -19 c-3 -8 -6 -5 -6 6 -1 11 2 17 5 13 3 -3 4 -12 1
-19z m113 12 c0 -5 -2 -10 -4 -10 -3 0 -8 5 -11 10 -3 6 -1 10 4 10 6 0 11 -4
11 -10z m360 -6 c0 -2 -9 -4 -21 -4 -11 0 -18 4 -14 10 5 8 35 3 35 -6z m140
-26 c0 -18 2 -19 18 -7 9 7 4 -1 -11 -18 -27 -29 -30 -30 -48 -15 -22 19 -22
19 -7 28 7 4 8 3 4 -4 -8 -14 -4 -15 18 -6 25 10 20 44 -6 44 -18 0 -20 2 -8
10 18 11 40 -6 40 -32z m27 20 c-3 -8 -6 -5 -6 6 -1 11 2 17 5 13 3 -3 4 -12
1 -19z m-587 -41 l25 -4 -26 -2 c-15 0 -33 7 -40 17 -12 15 -12 16 1 5 8 -6
26 -13 40 -16z m202 -24 c6 -7 14 -10 19 -7 5 3 9 0 9 -6 0 -7 7 -9 18 -5 13
5 14 4 5 -6 -15 -15 -53 1 -93 40 -23 22 -24 23 -2 12 19 -10 22 -9 23 6 1 15
2 15 6 -2 3 -11 10 -26 15 -32z m85 31 c-3 -3 -12 -4 -19 -1 -8 3 -5 6 6 6 11
1 17 -2 13 -5z m128 -21 c-15 -10 -20 -10 -27 -1 -4 8 -1 15 10 19 26 10 37
-2 17 -18z m-635 12 c0 -2 -10 -9 -22 -15 -22 -11 -22 -10 -4 4 21 17 26 19
26 11z m277 -28 c-12 -13 -24 -22 -26 -20 -6 4 30 43 40 43 5 0 -2 -10 -14
-23z m102 -3 c23 -29 26 -51 11 -74 -7 -11 -8 -6 -4 17 5 25 1 37 -19 57 -15
14 -22 26 -17 26 5 0 18 -12 29 -26z m291 1 c-7 -8 -22 -14 -34 -14 -19 2 -19
2 2 6 13 3 26 11 29 19 3 8 8 13 11 10 3 -3 -1 -12 -8 -21z m-820 -15 c-11
-20 -10 -21 12 -15 20 5 20 4 5 -5 -26 -16 -38 -4 -25 25 6 14 13 23 15 21 3
-2 -1 -14 -7 -26z m483 13 c-7 -2 -19 -2 -25 0 -7 3 -2 5 12 5 14 0 19 -2 13
-5z m37 -42 c0 -34 -17 -51 -50 -51 -33 0 -50 17 -49 50 1 23 2 23 8 -5 5 -26
10 -30 41 -30 34 0 35 1 35 37 0 20 3 34 8 31 4 -2 7 -17 7 -32z m327 23 c-3
-3 -12 -4 -19 -1 -8 3 -5 6 6 6 11 1 17 -2 13 -5z m-587 -12 c0 -5 -7 -9 -15
-9 -8 0 -15 4 -15 9 0 4 7 8 15 8 8 0 15 -4 15 -8z m220 -12 c0 -5 -4 -10 -10
-10 -5 0 -10 5 -10 10 0 6 5 10 10 10 6 0 10 -4 10 -10z m556 -56 c-9 -8 -16
-20 -16 -26 0 -6 -3 -9 -6 -6 -8 9 14 48 27 48 6 0 3 -7 -5 -16z m34 -24 c0
-5 -4 -10 -10 -10 -5 0 -10 5 -10 10 0 6 5 10 10 10 6 0 10 -4 10 -10z"/>
<path d="M1230 1560 c0 -5 5 -10 10 -10 6 0 10 5 10 10 0 6 -4 10 -10 10 -5 0
-10 -4 -10 -10z"/>
<path d="M1405 1342 c-4 -11 -8 -12 -20 -2 -12 10 -15 10 -15 -3 0 -17 34 -32
50 -22 6 4 9 1 8 -7 -2 -9 7 -12 27 -11 20 2 25 -1 16 -6 -9 -6 -10 -11 -2
-15 6 -4 12 -2 12 3 3 21 4 26 13 40 6 10 3 18 -9 28 -23 16 -73 13 -80 -5z"/>
<path d="M416 1314 c-4 -10 1 -25 10 -35 25 -27 14 -62 -26 -82 -35 -18 -35
-18 -6 -15 59 6 81 72 38 115 -13 13 -13 15 -2 11 8 -2 21 -17 28 -32 24 -49
-13 -106 -68 -106 -12 0 -18 -4 -15 -10 3 -5 2 -10 -3 -10 -5 0 -12 -13 -14
-30 -3 -16 -3 -30 -2 -30 1 0 12 16 24 35 12 19 28 35 36 35 8 0 26 11 39 25
31 30 33 82 4 119 -24 30 -34 33 -43 10z"/>
<path d="M543 1323 c-18 -7 -16 -43 2 -43 8 0 15 -7 15 -15 0 -8 -5 -15 -11
-15 -5 0 -8 4 -5 9 4 5 -3 7 -14 4 -13 -4 -20 -14 -20 -30 0 -22 3 -24 30 -18
34 7 44 -13 11 -22 -31 -8 -32 -29 -1 -31 38 -3 48 13 51 82 2 48 -1 61 -16
72 -20 15 -23 15 -42 7z"/>
<path d="M400 1256 c0 -14 -4 -26 -10 -26 -5 0 -10 -7 -10 -15 0 -18 11 -19
34 -2 11 8 17 22 14 37 -4 33 -28 38 -28 6z"/>
<path d="M774 1236 c-76 -33 -26 -86 81 -86 58 1 61 2 87 40 l27 39 -34 11
c-37 12 -55 7 -55 -16 0 -16 -26 -19 -35 -4 -4 6 1 7 12 4 15 -5 15 -4 3 5
-24 16 -45 -10 -31 -38 22 -41 80 -15 66 30 -5 14 -4 19 4 15 29 -18 -1 -76
-39 -76 -29 0 -54 43 -40 69 13 25 1 27 -46 7z"/>
<path d="M1202 1203 c-20 -4 -23 -10 -20 -41 l3 -37 56 -5 c47 -4 54 -7 43
-18 -8 -7 -14 -9 -14 -5 0 4 -5 1 -10 -7 -9 -13 -11 -13 -20 0 -5 8 -10 11
-10 5 0 -5 -4 -4 -9 4 -8 12 -14 13 -35 3 -31 -14 -34 -38 -5 -47 11 -4 18 -9
16 -12 -3 -2 -14 0 -24 5 -24 13 -64 -5 -42 -19 11 -7 10 -9 -3 -9 -9 0 -22
-8 -28 -17 -11 -17 -11 -17 -6 1 5 13 2 17 -8 13 -9 -4 -21 5 -32 21 -17 27
-17 27 3 10 11 -10 26 -18 35 -18 19 0 48 32 48 54 0 9 3 15 8 12 4 -2 15 2
25 9 12 8 14 15 8 20 -6 3 -11 22 -11 42 0 28 -3 34 -16 29 -9 -3 -19 -6 -22
-6 -4 0 0 -5 8 -11 12 -9 11 -10 -7 -6 -33 7 -60 -18 -89 -80 -19 -43 -24 -65
-19 -94 8 -49 41 -97 84 -126 40 -27 51 -23 21 7 -12 12 -19 28 -16 35 2 7 -2
16 -10 19 -8 3 -14 11 -14 18 0 9 3 9 12 0 13 -13 29 -16 27 -4 -6 38 17 43
31 6 12 -32 30 -22 30 16 0 18 -8 34 -22 44 -18 13 -19 16 -6 16 9 0 19 -4 23
-10 3 -5 11 -8 18 -6 7 1 9 1 5 -1 -12 -7 -9 -71 2 -78 6 -4 18 -1 27 7 14 11
15 11 5 -7 -7 -14 -7 -26 -1 -38 12 -20 4 -37 -18 -37 -12 0 -14 7 -10 30 6
28 -12 57 -21 32 -2 -6 -11 -8 -20 -5 -13 4 -14 3 -3 -5 10 -7 10 -14 2 -30
-6 -11 -11 -23 -11 -26 0 -3 41 -6 90 -6 50 0 90 3 90 8 0 4 -14 31 -31 60
-23 40 -35 52 -47 48 -15 -5 -15 -5 -1 6 9 7 18 20 22 28 4 10 6 8 6 -7 1 -24
23 -43 29 -25 5 17 32 15 32 -3 0 -7 -7 -18 -16 -23 -14 -8 -14 -10 0 -21 8
-7 25 -11 38 -9 26 3 39 38 14 38 -9 0 -16 8 -15 18 0 10 3 12 6 5 2 -7 9 -13
14 -13 6 0 7 4 4 10 -3 5 0 7 8 4 19 -7 30 11 22 36 -9 27 -41 35 -62 15 -14
-14 -14 -18 -2 -27 12 -8 12 -9 -1 -5 -8 2 -14 11 -14 20 1 12 -11 15 -64 16
-35 0 -67 3 -71 7 -3 3 15 5 42 3 26 -3 47 -1 47 3 0 4 9 10 20 13 25 8 26 31
3 44 -10 6 -13 11 -7 11 20 0 47 -27 42 -42 -5 -12 3 -15 41 -13 32 1 48 -3
48 -11 0 -7 -7 -10 -16 -6 -13 5 -13 2 2 -22 18 -27 18 -28 -2 -43 -12 -8 -21
-22 -21 -32 0 -26 -26 -44 -55 -39 -28 6 -29 4 -15 -23 11 -19 11 -19 48 0 45
23 122 88 122 103 0 7 7 20 17 30 13 15 14 18 2 18 -8 0 -20 -5 -26 -11 -8 -8
-13 -8 -18 0 -4 7 -1 10 7 9 7 -2 12 2 11 9 -2 7 4 10 15 7 14 -5 14 -3 -2 10
-16 13 -22 13 -35 3 -14 -11 -14 -10 -2 6 12 15 11 20 -3 36 -15 16 -27 19
-74 14 -40 -3 -53 -2 -42 6 8 5 18 7 22 5 11 -7 22 22 14 35 -4 6 -18 3 -35
-7 -16 -9 -27 -20 -24 -25 2 -4 -8 -5 -24 -2 -47 11 -55 14 -48 24 3 5 1 12
-4 16 -6 3 -15 -4 -21 -15 -11 -21 -40 -28 -40 -9 0 6 7 9 15 5 9 -3 15 0 15
9 0 8 -4 15 -10 15 -5 0 -7 7 -3 16 5 14 8 15 17 3 16 -21 40 -23 32 -4 -3 9
-6 19 -6 21 0 5 -24 3 -58 -3z m-52 -63 c0 -5 -8 -10 -17 -10 -15 0 -16 2 -3
10 19 12 20 12 20 0z m-57 -27 c-15 -5 -18 -33 -4 -33 5 0 12 6 14 13 4 9 6 9
6 0 1 -17 -19 -27 -31 -15 -13 13 -3 42 14 41 10 0 10 -2 1 -6z m60 0 c-7 -2
-19 -2 -25 0 -7 3 -2 5 12 5 14 0 19 -2 13 -5z m120 -55 c-2 -5 -13 -8 -23 -8
-10 0 -21 3 -23 8 -3 4 8 7 23 7 15 0 26 -3 23 -7z m221 -77 c4 -5 -3 -7 -14
-4 -23 6 -26 13 -6 13 8 0 17 -4 20 -9z"/>
<path d="M1270 1201 c0 -6 5 -13 11 -17 8 -4 7 -9 -2 -15 -11 -7 -11 -9 1 -9
13 0 13 -1 0 -10 -11 -7 -8 -10 16 -10 16 0 39 7 50 15 19 15 19 15 0 30 -11
8 -28 13 -38 9 -10 -3 -18 -1 -18 5 0 6 -4 11 -10 11 -5 0 -10 -4 -10 -9z m69
-38 c-6 -7 -17 -13 -23 -12 -7 0 -6 2 2 6 6 2 10 8 8 12 -3 4 1 8 9 8 11 0 12
-4 4 -14z"/>
<path d="M1568 1203 c6 -2 18 -2 25 0 6 3 1 5 -13 5 -14 0 -19 -2 -12 -5z"/>
<path d="M471 1164 c-27 -35 -34 -60 -22 -82 12 -23 -2 -47 -24 -38 -14 5 -15
14 -10 46 5 33 4 40 -9 40 -15 0 -56 -66 -56 -90 0 -6 42 -10 115 -10 63 0
115 3 115 6 0 9 -80 154 -85 154 -2 0 -13 -12 -24 -26z"/>
<path d="M428 1156 c-25 -11 -26 -13 -9 -23 16 -10 20 -8 30 13 6 13 10 24 8
23 -1 0 -14 -6 -29 -13z"/>
<path d="M1406 1135 c-4 -12 -1 -16 11 -13 18 3 21 20 5 26 -5 1 -12 -4 -16
-13z"/>
<path d="M860 1130 c-18 -5 -40 -17 -48 -27 -13 -17 -14 -17 -7 5 5 17 2 22
-13 22 -30 0 -82 -76 -68 -99 13 -20 27 -12 22 12 l-6 22 12 -23 c6 -12 27
-32 45 -44 35 -21 35 -21 61 -1 26 20 48 91 38 120 -3 6 0 14 7 17 18 7 -4 5
-43 -4z m0 -46 c0 -13 -2 -24 -4 -24 -2 0 -13 -3 -23 -6 -17 -6 -17 -6 1 8 13
10 17 22 13 37 -3 11 -1 19 4 15 5 -3 9 -16 9 -30z"/>
<path d="M596 1070 c6 -34 3 -42 -22 -64 l-29 -24 38 -7 c30 -6 42 -15 57 -44
l18 -36 16 36 c12 30 22 38 52 44 l37 6 -21 22 c-17 17 -24 19 -34 9 -14 -14
-44 -16 -52 -3 -11 17 6 41 29 41 17 0 26 8 34 31 6 17 7 29 3 27 -4 -2 -19
-10 -35 -18 -24 -12 -32 -11 -62 3 l-35 17 6 -40z"/>
<path d="M420 1070 c0 -19 11 -26 23 -14 8 8 -3 34 -14 34 -5 0 -9 -9 -9 -20z"/>
<path d="M665 1031 c-3 -5 -1 -12 5 -16 12 -7 30 2 30 16 0 12 -27 12 -35 0z"/>
<path d="M350 985 c0 -34 12 -46 25 -24 4 6 26 10 49 8 86 -4 110 1 129 26
l18 25 -111 0 -110 0 0 -35z"/>
<path d="M763 1003 c24 -27 22 -30 -23 -38 -31 -5 -44 -14 -55 -35 -20 -39
-20 -39 17 -38 40 1 82 -43 72 -75 -11 -36 -35 -57 -68 -58 -31 -2 -31 -2 -3
-6 19 -3 27 -10 25 -21 -2 -12 6 -16 34 -17 20 -1 35 1 33 5 -3 4 4 15 15 25
27 24 27 65 0 65 -15 0 -20 7 -20 28 0 15 -7 38 -16 51 -18 26 -7 46 16 30 13
-9 12 -10 -2 -5 -22 7 -24 -12 -3 -20 8 -4 15 -16 15 -29 0 -20 4 -22 41 -20
30 2 39 -1 35 -11 -7 -19 14 -17 41 4 l23 17 -20 32 c-14 24 -24 31 -37 26
-16 -5 -16 -4 1 9 14 11 17 22 11 46 -3 18 -9 32 -11 32 -14 0 -57 -36 -65
-54 -8 -19 -9 -18 -5 4 4 20 -2 29 -32 49 -31 20 -34 20 -19 4z m92 -72 c-3
-12 -14 -21 -23 -21 -13 0 -13 2 3 14 12 9 16 19 11 32 -5 14 -4 16 4 8 7 -7
9 -21 5 -33z m23 -51 c-7 -10 -14 -17 -17 -15 -4 4 18 35 25 35 2 0 -1 -9 -8
-20z"/>
<path d="M568 946 c12 -16 22 -40 22 -53 0 -29 -17 -63 -31 -63 -6 0 -3 10 5
22 34 48 4 108 -53 108 -26 0 -29 -3 -27 -32 1 -27 -3 -33 -19 -33 -16 0 -20
6 -19 33 2 28 -1 32 -23 32 -34 0 -63 -17 -63 -38 0 -9 5 -35 11 -57 11 -38
12 -39 22 -17 7 15 18 22 31 20 29 -4 27 -40 -1 -53 -34 -15 -28 -41 14 -63
23 -13 48 -8 76 16 23 20 22 35 -5 47 -28 12 -35 43 -12 52 25 10 56 -32 48
-66 -4 -14 -11 -31 -16 -37 -5 -8 -1 -14 14 -18 13 -3 24 -1 26 4 8 23 40 53
50 47 16 -11 83 -134 80 -149 -2 -7 4 -13 12 -13 9 0 27 -10 40 -23 30 -27 50
-28 84 -1 39 31 32 99 -11 99 -9 0 -11 -9 -7 -30 5 -22 2 -31 -11 -36 -25 -10
-50 19 -36 42 10 17 11 16 8 -6 -2 -29 26 -36 31 -8 5 25 -35 43 -65 29 -13
-6 -22 -7 -18 -2 3 5 -5 11 -17 13 -16 2 -26 13 -34 36 -5 17 -15 37 -22 44
-17 17 -15 58 5 80 10 11 12 18 4 18 -6 0 -19 16 -28 35 -10 20 -24 35 -34 35
-10 0 -25 3 -35 7 -16 6 -15 3 4 -21z m149 -288 c-3 -8 -6 -5 -6 6 -1 11 2 17
5 13 3 -3 4 -12 1 -19z"/>
<path d="M1135 961 c-3 -5 -1 -12 5 -16 5 -3 10 1 10 9 0 18 -6 21 -15 7z"/>
<path d="M1325 960 c-3 -5 -1 -10 4 -10 6 0 11 5 11 10 0 6 -2 10 -4 10 -3 0
-8 -4 -11 -10z"/>
<path d="M456 933 c-12 -12 -6 -33 9 -33 8 0 15 6 15 14 0 17 -14 28 -24 19z"/>
<path d="M1220 886 c0 -9 5 -16 10 -16 6 0 10 4 10 9 0 6 -4 13 -10 16 -5 3
-10 -1 -10 -9z"/>
<path d="M666 864 c-19 -18 -20 -38 -6 -65 12 -21 35 -26 27 -6 -8 20 9 41 27
34 9 -4 16 -18 16 -33 0 -22 2 -25 15 -14 18 15 20 71 3 88 -17 17 -64 15 -82
-4z"/>
<path d="M404 849 c-3 -6 -2 -15 2 -19 12 -12 38 5 30 19 -9 14 -23 14 -32 0z"/>
<path d="M494 849 c-10 -17 13 -36 27 -22 12 12 4 33 -11 33 -5 0 -12 -5 -16
-11z"/>
<path d="M1555 831 c-16 -10 -40 -30 -53 -43 l-23 -25 30 -6 c17 -4 32 -14 36
-27 9 -27 19 -25 33 5 13 28 16 52 5 42 -3 -4 -12 -2 -20 4 -15 13 0 39 23 39
8 0 14 7 14 15 0 20 -9 19 -45 -4z"/>
<path d="M912 822 c-19 -12 -30 -13 -52 -5 -28 11 -29 10 -23 -18 4 -21 0 -36
-12 -49 -11 -12 -14 -20 -7 -21 7 -1 17 -3 22 -4 6 -1 15 -3 20 -4 6 0 10 -6
10 -12 0 -5 -5 -7 -12 -3 -7 4 -8 3 -4 -5 4 -6 11 -9 16 -6 5 3 13 -2 18 -11
8 -14 11 -11 20 15 7 21 18 31 31 31 27 0 35 17 14 28 -11 7 -23 6 -35 -1 -13
-9 -20 -9 -29 0 -15 15 -3 33 21 33 10 0 21 8 23 18 4 14 5 13 6 -4 0 -11 9
-28 20 -38 16 -15 19 -15 31 -1 11 13 10 19 -6 36 -30 33 -47 38 -72 21z"/>
<path d="M696 811 c-4 -5 -2 -12 3 -15 5 -4 12 -2 15 3 4 5 2 12 -3 15 -5 4
-12 2 -15 -3z"/>
<path d="M1565 801 c-6 -11 9 -23 19 -14 9 9 7 23 -3 23 -6 0 -12 -4 -16 -9z"/>
<path d="M587 761 c-9 -16 -16 -44 -15 -62 2 -26 -1 -34 -16 -37 -17 -4 -18 0
-13 32 7 44 -12 59 -56 44 -20 -7 -36 -7 -53 1 l-25 11 28 -52 c33 -61 139
-177 200 -219 l43 -30 0 35 c0 19 5 38 10 41 25 15 5 25 -53 25 -93 0 -136 38
-85 74 22 15 21 16 -24 16 -26 0 -50 5 -53 10 -6 10 35 93 43 85 2 -2 -5 -19
-17 -38 -11 -19 -21 -37 -21 -41 0 -3 47 -6 105 -6 58 0 105 3 105 6 0 12 -72
134 -79 134 -4 0 -14 -13 -24 -29z"/>
<path d="M895 770 c-3 -5 1 -10 9 -10 9 0 16 5 16 10 0 6 -4 10 -9 10 -6 0
-13 -4 -16 -10z"/>
<path d="M997 763 c-17 -16 -6 -80 16 -101 30 -29 87 -29 112 -2 10 11 16 22
13 25 -3 3 -13 -4 -23 -15 -23 -26 -69 -26 -95 0 -20 20 -28 74 -12 84 4 2 6
-10 4 -29 -2 -18 1 -36 7 -39 7 -5 9 3 5 22 -3 16 -1 32 4 36 6 4 8 -2 5 -14
-11 -43 46 -69 67 -30 9 17 5 22 -39 45 -56 28 -55 28 -64 18z m83 -43 c0 -5
-4 -10 -10 -10 -5 0 -10 5 -10 10 0 6 5 10 10 10 6 0 10 -4 10 -10z"/>
<path d="M1435 751 c-7 -12 31 -25 46 -15 8 4 7 9 -2 15 -18 11 -36 11 -44 0z"/>
<path d="M1403 723 c-4 -9 -1 -19 5 -21 19 -6 14 -22 -8 -22 -13 0 -20 -7 -20
-20 0 -17 5 -19 25 -14 29 7 34 -10 8 -25 -17 -9 -17 -10 0 -17 26 -10 34 4
39 64 4 44 2 54 -13 62 -24 14 -29 13 -36 -7z"/>
<path d="M1488 729 c-14 -8 -16 -19 -11 -62 6 -60 14 -72 40 -63 17 7 17 8 1
17 -27 15 -22 32 7 25 20 -5 25 -3 25 13 0 11 5 21 12 23 7 3 5 7 -6 11 -10 4
-15 3 -11 -3 3 -6 -3 -10 -14 -10 -22 0 -29 16 -9 22 12 4 4 38 -9 38 -4 0
-16 -5 -25 -11z"/>
<path d="M945 723 c-12 -2 -26 -17 -33 -35 -10 -26 -14 -29 -27 -18 -13 10
-15 9 -15 -7 0 -10 6 -25 13 -32 10 -11 9 -13 -1 -7 -7 4 -25 -3 -43 -18 -32
-27 -63 -34 -74 -16 -7 12 -25 4 -25 -11 0 -5 16 -9 35 -9 41 0 85 -36 85 -71
0 -15 4 -19 16 -15 9 3 22 6 30 6 17 0 15 47 -3 62 -16 13 -17 42 -3 69 11 20
74 28 85 9 3 -5 12 -7 20 -4 12 5 11 10 -5 31 -11 14 -20 36 -20 49 0 13 -3
23 -7 23 -5 -1 -17 -4 -28 -6z m2 -65 c-3 -8 -6 -5 -6 6 -1 11 2 17 5 13 3 -3
4 -12 1 -19z"/>
<path d="M1367 724 c-7 -7 2 -34 12 -34 4 0 7 9 7 20 0 20 -7 25 -19 14z"/>
<path d="M1105 694 c-14 -22 -22 -25 -46 -20 -19 3 -28 2 -24 -4 13 -21 64
-11 81 15 9 14 14 28 12 31 -3 2 -13 -7 -23 -22z"/>
<path d="M1308 712 c-29 -3 -43 -28 -32 -56 8 -22 21 -20 27 4 7 26 37 16 37
-13 0 -20 1 -20 16 -5 11 11 14 25 10 41 -7 28 -19 34 -58 29z"/>
<path d="M1144 689 c1 -24 3 -25 53 -22 50 3 53 2 68 -29 l16 -33 -21 28 c-30
37 -48 35 -46 -5 1 -26 -3 -33 -18 -33 -11 0 -20 6 -22 13 -1 7 0 8 3 2 8 -18
33 -11 33 9 0 26 -19 37 -32 20 -8 -11 -9 -10 -4 4 6 20 -16 23 -36 4 -7 -7
-33 -14 -58 -15 -72 -5 -80 -9 -80 -47 0 -21 -7 -39 -17 -47 -27 -20 -25 -48
2 -48 16 0 22 6 21 18 -1 18 13 20 50 8 19 -6 21 -3 20 31 -1 31 3 38 24 43
19 4 30 0 43 -17 37 -46 54 -48 92 -10 19 19 35 31 35 27 0 -5 -4 -12 -10 -15
-20 -12 -9 -20 30 -22 22 0 40 3 40 8 0 5 -7 9 -15 9 -8 0 -15 6 -15 13 0 7
-9 30 -21 51 -11 21 -18 44 -15 51 6 16 -96 28 -105 13 -4 -6 -9 -5 -12 3 -2
8 -4 2 -3 -12z"/>
<path d="M550 685 c0 -8 5 -15 10 -15 6 0 10 7 10 15 0 8 -4 15 -10 15 -5 0
-10 -7 -10 -15z"/>
<path d="M1461 664 c0 -11 3 -14 6 -6 3 7 2 16 -1 19 -3 4 -6 -2 -5 -13z"/>
<path d="M1310 650 c0 -5 5 -10 10 -10 6 0 10 5 10 10 0 6 -4 10 -10 10 -5 0
-10 -4 -10 -10z"/>
<path d="M1359 627 c-8 -7 -18 -20 -22 -30 -5 -14 -2 -16 21 -12 26 5 26 5 5
-6 -13 -7 -23 -21 -23 -32 0 -14 -4 -17 -17 -12 -37 15 -49 16 -78 4 -17 -7
-32 -12 -35 -11 -3 0 -6 -23 -6 -51 -1 -33 0 -39 3 -17 5 41 18 59 50 71 34
13 72 -6 88 -43 12 -27 14 -29 15 -11 0 12 -4 25 -10 28 -15 10 -12 28 4 22 8
-3 32 -8 53 -12 30 -4 33 -3 16 4 -17 8 -23 18 -22 38 l1 28 7 -25 c4 -16 14
-25 26 -25 14 0 21 8 24 25 3 21 4 22 10 7 6 -17 8 -17 20 -3 11 13 10 17 -4
23 -11 4 -22 0 -30 -10 -7 -10 -15 -17 -19 -17 -12 0 -46 40 -46 54 0 21 -13
26 -31 13z"/>
<path d="M558 619 c-37 -21 -9 -59 43 -59 18 0 19 3 9 15 -6 8 -10 22 -7 32 4
15 5 14 6 -3 0 -12 9 -25 19 -29 25 -11 84 -24 78 -18 -3 3 4 13 16 23 l21 17
-24 16 c-30 21 -53 22 -45 2 7 -19 -3 -45 -16 -45 -6 0 -5 7 2 15 10 12 10 19
2 27 -9 9 -12 9 -12 0 0 -7 -5 -12 -11 -12 -5 0 -7 5 -3 12 4 6 3 8 -4 4 -6
-3 -13 -2 -17 4 -8 13 -35 12 -57 -1z"/>
<path d="M910 616 c-6 -8 -10 -25 -8 -37 3 -25 28 -39 28 -15 0 27 20 28 30 1
5 -14 14 -23 20 -20 14 9 13 58 -2 73 -16 16 -53 15 -68 -2z"/>
<path d="M1456 615 c-3 -9 0 -15 9 -15 9 0 12 6 9 15 -4 8 -7 15 -9 15 -2 0
-5 -7 -9 -15z"/>
<path d="M941 564 c0 -11 3 -14 6 -6 3 7 2 16 -1 19 -3 4 -6 -2 -5 -13z"/>
<path d="M1082 553 c2 -17 9 -28 18 -28 9 0 16 11 18 28 3 22 -1 27 -18 27
-17 0 -21 -5 -18 -27z"/>
<path d="M711 534 c-23 -30 -28 -76 -8 -92 6 -6 14 -10 17 -10 3 0 17 -3 33
-7 59 -15 101 51 60 97 -9 10 -11 18 -5 18 15 0 32 -33 32 -64 0 -16 -11 -34
-32 -50 -18 -14 -27 -26 -20 -26 26 0 62 48 62 83 0 47 -31 77 -80 77 -30 0
-43 -6 -59 -26z m64 9 c-47 -7 -68 -32 -61 -73 4 -24 3 -30 -4 -20 -29 45 7
101 63 99 l32 -2 -30 -4z m35 -32 c16 -31 12 -49 -14 -66 -29 -19 -61 -8 -71
26 -15 45 62 82 85 40z"/>
<path d="M740 505 c-14 -17 -5 -51 16 -59 22 -8 54 11 54 32 0 38 -46 56 -70
27z m41 -28 c-13 -13 -26 -3 -16 12 3 6 11 8 17 5 6 -4 6 -10 -1 -17z"/>
<path d="M1127 538 c-8 -28 -4 -32 22 -23 26 8 27 21 2 34 -15 9 -20 7 -24
-11z"/>
<path d="M1253 520 c-28 -11 -39 -53 -24 -87 11 -24 11 -25 -5 -12 -16 13 -17
12 -11 -6 7 -20 7 -20 -8 -1 -14 18 -20 59 -15 95 1 10 -4 11 -17 6 -29 -12
-116 -14 -136 -3 -31 16 -32 0 -3 -23 23 -18 27 -28 22 -50 -6 -33 -4 -34 24
-17 16 10 24 10 40 0 28 -17 31 -15 24 13 -6 25 9 55 29 55 5 0 3 -8 -6 -17
-10 -12 -13 -28 -10 -45 6 -30 -5 -35 -37 -18 -22 12 -90 -15 -98 -38 -6 -19
90 -8 181 20 63 19 66 22 47 35 -22 16 -27 52 -8 71 19 19 66 15 78 -7 5 -11
10 -26 10 -33 0 -7 -6 -2 -13 12 -16 32 -63 40 -71 12 -9 -29 3 -52 28 -52 13
0 26 3 30 8 4 4 13 7 19 7 24 0 18 43 -9 64 -30 23 -30 23 -61 11z m37 -55 c0
-8 -4 -15 -9 -15 -13 0 -22 16 -14 24 11 11 23 6 23 -9z"/>
<path d="M1367 490 c4 -16 9 -18 25 -9 17 9 18 13 7 20 -24 15 -37 10 -32 -11z"/>
<path d="M1007 483 c-3 -3 -32 -6 -64 -6 -55 -2 -61 -4 -96 -43 -36 -40 -36
-42 -15 -47 11 -3 30 -1 41 4 14 8 22 7 31 -2 8 -9 8 -10 -3 -4 -9 5 -12 4 -7
-3 16 -26 36 -12 36 26 0 45 19 81 22 42 1 -14 3 -34 4 -45 1 -11 2 -26 3 -32
1 -7 13 -13 29 -13 23 1 24 2 10 11 -27 15 -22 32 8 25 21 -6 25 -4 22 11 -2
10 -11 17 -21 17 -9 -1 -17 4 -17 12 0 8 5 14 10 14 6 0 10 8 11 18 1 11 3 9
8 -7 8 -30 31 -40 31 -14 0 18 -33 46 -43 36z m-109 -52 c3 -9 -2 -11 -17 -6
-17 5 -21 2 -22 -17 -1 -18 -2 -19 -6 -5 -9 35 34 61 45 28z"/>
</g>
</svg>
