<svg xmlns="http://www.w3.org/2000/svg" xmlns:xlink="http://www.w3.org/1999/xlink" width="30" height="30" viewBox="0 0 30 30"><svg width="30" height="30" viewBox="0 0 30 30" fill="none" id="icon-phone" y="0"><path d="M15 0C6.715 0 0 6.715 0 15c0 8.284 6.715 15 15 15s15-6.716 15-15c0-8.285-6.715-15-15-15z" fill="#06A12E"></path><path d="M13.818 16.13c1.618 1.618 3.204 2.274 3.775 1.703l.785-.784a1.384 1.384 0 0 1 1.956 0l1.761 1.76a1.384 1.384 0 0 1 0 1.957l-1.372 1.373c-1.296 1.296-5.13-.435-8.805-4.11-1.837-1.837-3.041-3.567-3.82-5.194-.778-1.628-.936-2.963-.288-3.61l1.372-1.373a1.384 1.384 0 0 1 1.957 0l1.76 1.76a1.384 1.384 0 0 1 0 1.958l-.784.786c-.572.57.085 2.156 1.703 3.774z" fill="#fff"></path></svg></svg>